REM DIRINDEX 1\2,1\3,1\4
REM DIRNAME folder01,folder02,folder03,folder04
TITLE ""
FILE "DISC1Track09.mp3" MP3
  TRACK 01 AUDIO
    TITLE "4:cjc038_0161"
    INDEX 01 00:00:00
  TRACK 02 AUDIO
    TITLE "0:"
    INDEX 01 00:02:40
  TRACK 03 AUDIO
    TITLE "2:cjc038_0162"
    INDEX 01 00:04:07
  TRACK 04 AUDIO
    TITLE "0:"
    INDEX 01 00:07:07
  TRACK 05 AUDIO
    TITLE "3:cjc038_0163"
    INDEX 01 00:07:17
  TRACK 06 AUDIO
    TITLE "0:"
    INDEX 01 00:10:14
  TRACK 07 AUDIO
    TITLE "2:cjc038_0164"
    INDEX 01 00:10:66
  TRACK 08 AUDIO
    TITLE "0:"
    INDEX 01 00:13:47
  TRACK 09 AUDIO
    TITLE "3:cjc038_0165"
    INDEX 01 00:13:55
  TRACK 10 AUDIO
    TITLE "0:"
    INDEX 01 00:16:16
  TRACK 11 AUDIO
    TITLE "2:cjc038_0166"
    INDEX 01 00:17:08
  TRACK 12 AUDIO
    TITLE "0:"
    INDEX 01 00:20:49
  TRACK 13 AUDIO
    TITLE "3:cjc038_0167"
    INDEX 01 00:20:55
  TRACK 14 AUDIO
    TITLE "0:"
    INDEX 01 00:24:04
  TRACK 15 AUDIO
    TITLE "2:cjc038_0168"
    INDEX 01 00:24:67
  TRACK 16 AUDIO
    TITLE "0:"
    INDEX 01 00:27:43
  TRACK 17 AUDIO
    TITLE "3:cjc038_0169"
    INDEX 01 00:27:53
  TRACK 18 AUDIO
    TITLE "0:"
    INDEX 01 00:30:08
  TRACK 19 AUDIO
    TITLE "2:cjc038_0170"
    INDEX 01 00:31:00
  TRACK 20 AUDIO
    TITLE "0:"
    INDEX 01 00:34:34
  TRACK 21 AUDIO
    TITLE "3:cjc038_0171"
    INDEX 01 00:34:42
  TRACK 22 AUDIO
    TITLE "0:"
    INDEX 01 00:37:61
  TRACK 23 AUDIO
    TITLE "2:cjc038_0172"
    INDEX 01 00:38:43
  TRACK 24 AUDIO
    TITLE "0:"
    INDEX 01 00:41:22
  TRACK 25 AUDIO
    TITLE "3:cjc038_0173"
    INDEX 01 00:41:26
  TRACK 26 AUDIO
    TITLE "0:"
    INDEX 01 00:43:62
  TRACK 27 AUDIO
    TITLE "2:cjc038_0174"
    INDEX 01 00:44:52
  TRACK 28 AUDIO
    TITLE "0:"
    INDEX 01 00:47:70
  TRACK 29 AUDIO
    TITLE "3:cjc038_0175"
    INDEX 01 00:48:06
  TRACK 30 AUDIO
    TITLE "0:"
    INDEX 01 00:51:15
  TRACK 31 AUDIO
    TITLE "2:cjc038_0176"
    INDEX 01 00:51:71
  TRACK 32 AUDIO
    TITLE "0:"
    INDEX 01 00:53:53
  TRACK 33 AUDIO
    TITLE "3:cjc038_0177"
    INDEX 01 00:53:66
  TRACK 34 AUDIO
    TITLE "0:"
    INDEX 01 00:55:40
  TRACK 35 AUDIO
    TITLE "2:cjc038_0178"
    INDEX 01 00:57:17
  TRACK 36 AUDIO
    TITLE "0:"
    INDEX 01 01:00:25
  TRACK 37 AUDIO
    TITLE "3:cjc038_0179"
    INDEX 01 01:00:33
  TRACK 38 AUDIO
    TITLE "0:"
    INDEX 01 01:03:35
  TRACK 39 AUDIO
    TITLE "2:cjc038_0180"
    INDEX 01 01:04:15
  TRACK 40 AUDIO
    TITLE "0:"
    INDEX 01 01:07:14
  TRACK 41 AUDIO
    TITLE "3:cjc038_0181"
    INDEX 01 01:07:25
  TRACK 42 AUDIO
    TITLE "0:"
    INDEX 01 01:10:04
  TRACK 43 AUDIO
    TITLE "2:cjc038_0182"
    INDEX 01 01:10:65
  TRACK 44 AUDIO
    TITLE "0:"
    INDEX 01 01:14:10
  TRACK 45 AUDIO
    TITLE "3:cjc038_0183"
    INDEX 01 01:14:19
  TRACK 46 AUDIO
    TITLE "0:"
    INDEX 01 01:17:35
  TRACK 47 AUDIO
    TITLE "2:cjc038_0184"
    INDEX 01 01:18:11
  TRACK 48 AUDIO
    TITLE "0:"
    INDEX 01 01:21:16
  TRACK 49 AUDIO
    TITLE "3:cjc038_0185"
    INDEX 01 01:21:20
  TRACK 50 AUDIO
    TITLE "0:"
    INDEX 01 01:24:10
  TRACK 51 AUDIO
    TITLE "2:cjc038_0186"
    INDEX 01 01:24:69
  TRACK 52 AUDIO
    TITLE "0:"
    INDEX 01 01:27:73
  TRACK 53 AUDIO
    TITLE "3:cjc038_0187"
    INDEX 01 01:28:04
  TRACK 54 AUDIO
    TITLE "0:"
    INDEX 01 01:31:04
  TRACK 55 AUDIO
    TITLE "2:cjc038_0188"
    INDEX 01 01:31:55
  TRACK 56 AUDIO
    TITLE "0:"
    INDEX 01 01:35:22
  TRACK 57 AUDIO
    TITLE "3:cjc038_0189"
    INDEX 01 01:35:29
  TRACK 58 AUDIO
    TITLE "0:"
    INDEX 01 01:38:61
  TRACK 59 AUDIO
    TITLE "2:cjc038_0190"
    INDEX 01 01:39:45
  TRACK 60 AUDIO
    TITLE "0:"
    INDEX 01 01:42:10
  TRACK 61 AUDIO
    TITLE "3:cjc038_0191"
    INDEX 01 01:42:18
  TRACK 62 AUDIO
    TITLE "0:"
    INDEX 01 01:44:46
  TRACK 63 AUDIO
    TITLE "2:cjc038_0192"
    INDEX 01 01:46:31
  TRACK 64 AUDIO
    TITLE "0:"
    INDEX 01 01:48:52
  TRACK 65 AUDIO
    TITLE "3:cjc038_0193"
    INDEX 01 01:48:58
  TRACK 66 AUDIO
    TITLE "0:"
    INDEX 01 01:50:64
  TRACK 67 AUDIO
    TITLE "2:cjc038_0194"
    INDEX 01 01:51:54
  TRACK 68 AUDIO
    TITLE "0:"
    INDEX 01 01:55:71
  TRACK 69 AUDIO
    TITLE "3:cjc038_0195"
    INDEX 01 01:56:08
  TRACK 70 AUDIO
    TITLE "0:"
    INDEX 01 02:00:04
  TRACK 71 AUDIO
    TITLE "2:cjc038_0196"
    INDEX 01 02:00:67
  TRACK 72 AUDIO
    TITLE "0:"
    INDEX 01 02:03:61
  TRACK 73 AUDIO
    TITLE "3:cjc038_0197"
    INDEX 01 02:03:71
  TRACK 74 AUDIO
    TITLE "0:"
    INDEX 01 02:06:55
  TRACK 75 AUDIO
    TITLE "2:cjc038_0198"
    INDEX 01 02:08:29
  TRACK 76 AUDIO
    TITLE "0:"
    INDEX 01 02:11:49
  TRACK 77 AUDIO
    TITLE "3:cjc038_0199"
    INDEX 01 02:11:59
  TRACK 78 AUDIO
    TITLE "0:"
    INDEX 01 02:14:61
  TRACK 79 AUDIO
    TITLE "2:cjc038_0200"
    INDEX 01 02:15:45
  TRACK 80 AUDIO
    TITLE "0:"
    INDEX 01 02:19:70
  TRACK 81 AUDIO
    TITLE "3:cjc038_0201"
    INDEX 01 02:20:03
  TRACK 82 AUDIO
    TITLE "0:"
    INDEX 01 02:24:20
  TRACK 83 AUDIO
    TITLE "2:cjc038_0202"
    INDEX 01 02:24:71
  TRACK 84 AUDIO
    TITLE "0:"
    INDEX 01 02:29:57
  TRACK 85 AUDIO
    TITLE "3:cjc038_0203"
    INDEX 01 02:29:58
  TRACK 86 AUDIO
    TITLE "0:"
    INDEX 01 02:34:38
